<mxfile host="app.diagrams.net" modified="2023-10-25T11:51:32.926Z" agent="Mozilla/5.0 (Windows NT 10.0; Win64; x64) AppleWebKit/537.36 (KHTML, like Gecko) Chrome/117.0.0.0 Safari/537.36" etag="VuNqBfBagwOGCfRu8kfN" version="22.0.8" type="device">
  <diagram name="Page-1" id="uQS9ek2D7PSYEIglThoV">
    <mxGraphModel dx="1235" dy="1807" grid="1" gridSize="10" guides="1" tooltips="1" connect="1" arrows="1" fold="1" page="1" pageScale="1" pageWidth="827" pageHeight="1169" math="0" shadow="0">
      <root>
        <mxCell id="0" />
        <mxCell id="1" parent="0" />
        <mxCell id="oFbbETFREsKXqKu5l48W-1" style="edgeStyle=none;rounded=0;orthogonalLoop=1;jettySize=auto;html=1;endArrow=blockThin;endFill=1;" parent="1" source="oFbbETFREsKXqKu5l48W-3" edge="1">
          <mxGeometry relative="1" as="geometry">
            <mxPoint x="1119.9999999999998" y="-988" as="targetPoint" />
            <Array as="points">
              <mxPoint x="1049" y="-988" />
            </Array>
          </mxGeometry>
        </mxCell>
        <mxCell id="oFbbETFREsKXqKu5l48W-2" value="авторизация(логин, пароль)" style="edgeLabel;html=1;align=center;verticalAlign=middle;resizable=0;points=[];" parent="oFbbETFREsKXqKu5l48W-1" vertex="1" connectable="0">
          <mxGeometry x="0.0631" y="-3" relative="1" as="geometry">
            <mxPoint x="-7" y="-4" as="offset" />
          </mxGeometry>
        </mxCell>
        <mxCell id="oFbbETFREsKXqKu5l48W-3" value="&lt;span style=&quot;background-color: rgb(255, 255, 255);&quot;&gt;Пользователь&lt;/span&gt;" style="shape=umlLifeline;participant=umlActor;perimeter=lifelinePerimeter;whiteSpace=wrap;html=1;container=1;collapsible=0;recursiveResize=0;verticalAlign=top;spacingTop=36;outlineConnect=0;" parent="1" vertex="1">
          <mxGeometry x="910" y="-1060" width="20" height="850" as="geometry" />
        </mxCell>
        <mxCell id="8kdLGrxo9rFv1h7z05Aq-74" value="" style="html=1;points=[];perimeter=orthogonalPerimeter;outlineConnect=0;targetShapes=umlLifeline;portConstraint=eastwest;newEdgeStyle={&quot;edgeStyle&quot;:&quot;elbowEdgeStyle&quot;,&quot;elbow&quot;:&quot;vertical&quot;,&quot;curved&quot;:0,&quot;rounded&quot;:0};" parent="oFbbETFREsKXqKu5l48W-3" vertex="1">
          <mxGeometry x="5" y="70" width="10" height="750" as="geometry" />
        </mxCell>
        <mxCell id="oFbbETFREsKXqKu5l48W-4" value=":ТВ-каналы" style="shape=umlLifeline;perimeter=lifelinePerimeter;whiteSpace=wrap;html=1;container=1;collapsible=0;recursiveResize=0;outlineConnect=0;" parent="1" vertex="1">
          <mxGeometry x="1550" y="-1060" width="100" height="850" as="geometry" />
        </mxCell>
        <mxCell id="8kdLGrxo9rFv1h7z05Aq-78" value="" style="html=1;points=[];perimeter=orthogonalPerimeter;outlineConnect=0;targetShapes=umlLifeline;portConstraint=eastwest;newEdgeStyle={&quot;edgeStyle&quot;:&quot;elbowEdgeStyle&quot;,&quot;elbow&quot;:&quot;vertical&quot;,&quot;curved&quot;:0,&quot;rounded&quot;:0};" parent="oFbbETFREsKXqKu5l48W-4" vertex="1">
          <mxGeometry x="45" y="310" width="10" height="40" as="geometry" />
        </mxCell>
        <mxCell id="8kdLGrxo9rFv1h7z05Aq-79" value="" style="html=1;points=[];perimeter=orthogonalPerimeter;outlineConnect=0;targetShapes=umlLifeline;portConstraint=eastwest;newEdgeStyle={&quot;edgeStyle&quot;:&quot;elbowEdgeStyle&quot;,&quot;elbow&quot;:&quot;vertical&quot;,&quot;curved&quot;:0,&quot;rounded&quot;:0};" parent="oFbbETFREsKXqKu5l48W-4" vertex="1">
          <mxGeometry x="45" y="440" width="10" height="36" as="geometry" />
        </mxCell>
        <mxCell id="oFbbETFREsKXqKu5l48W-7" value="Otium:UI&amp;nbsp;" style="shape=umlLifeline;perimeter=lifelinePerimeter;whiteSpace=wrap;html=1;container=1;collapsible=0;recursiveResize=0;outlineConnect=0;" parent="1" vertex="1">
          <mxGeometry x="1076" y="-1060" width="100" height="850" as="geometry" />
        </mxCell>
        <mxCell id="oFbbETFREsKXqKu5l48W-5" style="edgeStyle=none;rounded=0;orthogonalLoop=1;jettySize=auto;html=1;endArrow=blockThin;endFill=1;" parent="oFbbETFREsKXqKu5l48W-7" edge="1">
          <mxGeometry relative="1" as="geometry">
            <mxPoint x="263.7499999999998" y="91" as="targetPoint" />
            <Array as="points">
              <mxPoint x="217.75" y="90" />
            </Array>
            <mxPoint x="54.25" y="90" as="sourcePoint" />
          </mxGeometry>
        </mxCell>
        <mxCell id="oFbbETFREsKXqKu5l48W-6" value="авторизация(логин, пароль)" style="edgeLabel;html=1;align=center;verticalAlign=middle;resizable=0;points=[];" parent="oFbbETFREsKXqKu5l48W-5" vertex="1" connectable="0">
          <mxGeometry x="0.0981" y="-1" relative="1" as="geometry">
            <mxPoint x="-8" y="-3" as="offset" />
          </mxGeometry>
        </mxCell>
        <mxCell id="8kdLGrxo9rFv1h7z05Aq-15" value="Use" style="endArrow=open;endSize=12;dashed=1;html=1;rounded=0;" parent="oFbbETFREsKXqKu5l48W-7" edge="1">
          <mxGeometry width="160" relative="1" as="geometry">
            <mxPoint x="263.75" y="169" as="sourcePoint" />
            <mxPoint x="54.25" y="169" as="targetPoint" />
          </mxGeometry>
        </mxCell>
        <mxCell id="8kdLGrxo9rFv1h7z05Aq-16" value="Авторизация не пройдена" style="edgeLabel;html=1;align=center;verticalAlign=middle;resizable=0;points=[];" parent="8kdLGrxo9rFv1h7z05Aq-15" vertex="1" connectable="0">
          <mxGeometry x="0.0991" y="-1" relative="1" as="geometry">
            <mxPoint as="offset" />
          </mxGeometry>
        </mxCell>
        <mxCell id="8kdLGrxo9rFv1h7z05Aq-21" style="edgeStyle=none;rounded=0;orthogonalLoop=1;jettySize=auto;html=1;endArrow=blockThin;endFill=1;" parent="oFbbETFREsKXqKu5l48W-7" edge="1">
          <mxGeometry relative="1" as="geometry">
            <mxPoint x="265" y="240.5" as="targetPoint" />
            <Array as="points">
              <mxPoint x="202" y="240" />
            </Array>
            <mxPoint x="55" y="240.5" as="sourcePoint" />
          </mxGeometry>
        </mxCell>
        <mxCell id="8kdLGrxo9rFv1h7z05Aq-22" value="запрос библитеки каналов" style="edgeLabel;html=1;align=center;verticalAlign=middle;resizable=0;points=[];" parent="8kdLGrxo9rFv1h7z05Aq-21" vertex="1" connectable="0">
          <mxGeometry x="0.0631" y="-3" relative="1" as="geometry">
            <mxPoint x="-7" y="-4" as="offset" />
          </mxGeometry>
        </mxCell>
        <mxCell id="8kdLGrxo9rFv1h7z05Aq-23" value="Use" style="endArrow=open;endSize=12;dashed=1;html=1;rounded=0;" parent="oFbbETFREsKXqKu5l48W-7" source="oFbbETFREsKXqKu5l48W-8" edge="1">
          <mxGeometry width="160" relative="1" as="geometry">
            <mxPoint x="523.5" y="349.5" as="sourcePoint" />
            <mxPoint x="51.75" y="349.5" as="targetPoint" />
          </mxGeometry>
        </mxCell>
        <mxCell id="8kdLGrxo9rFv1h7z05Aq-24" value="библитека каналов" style="edgeLabel;html=1;align=center;verticalAlign=middle;resizable=0;points=[];" parent="8kdLGrxo9rFv1h7z05Aq-23" vertex="1" connectable="0">
          <mxGeometry x="0.0991" y="-1" relative="1" as="geometry">
            <mxPoint as="offset" />
          </mxGeometry>
        </mxCell>
        <mxCell id="8kdLGrxo9rFv1h7z05Aq-58" style="edgeStyle=none;rounded=0;orthogonalLoop=1;jettySize=auto;html=1;endArrow=blockThin;endFill=1;" parent="oFbbETFREsKXqKu5l48W-7" edge="1">
          <mxGeometry relative="1" as="geometry">
            <mxPoint x="50" y="640" as="targetPoint" />
            <Array as="points">
              <mxPoint x="-26.5" y="640" />
            </Array>
            <mxPoint x="-146" y="640" as="sourcePoint" />
          </mxGeometry>
        </mxCell>
        <mxCell id="8kdLGrxo9rFv1h7z05Aq-59" value="просмотреть список избранных" style="edgeLabel;html=1;align=center;verticalAlign=middle;resizable=0;points=[];" parent="8kdLGrxo9rFv1h7z05Aq-58" vertex="1" connectable="0">
          <mxGeometry x="0.0631" y="-3" relative="1" as="geometry">
            <mxPoint x="-7" y="-4" as="offset" />
          </mxGeometry>
        </mxCell>
        <mxCell id="8kdLGrxo9rFv1h7z05Aq-60" style="edgeStyle=none;rounded=0;orthogonalLoop=1;jettySize=auto;html=1;endArrow=blockThin;endFill=1;" parent="oFbbETFREsKXqKu5l48W-7" edge="1">
          <mxGeometry relative="1" as="geometry">
            <mxPoint x="260" y="660" as="targetPoint" />
            <Array as="points">
              <mxPoint x="183.5" y="660" />
            </Array>
            <mxPoint x="54" y="660" as="sourcePoint" />
          </mxGeometry>
        </mxCell>
        <mxCell id="8kdLGrxo9rFv1h7z05Aq-61" value="просмотреть список избранных" style="edgeLabel;html=1;align=center;verticalAlign=middle;resizable=0;points=[];" parent="8kdLGrxo9rFv1h7z05Aq-60" vertex="1" connectable="0">
          <mxGeometry x="0.0631" y="-3" relative="1" as="geometry">
            <mxPoint x="-7" y="-4" as="offset" />
          </mxGeometry>
        </mxCell>
        <mxCell id="8kdLGrxo9rFv1h7z05Aq-62" value="Use" style="endArrow=open;endSize=12;dashed=1;html=1;rounded=0;" parent="oFbbETFREsKXqKu5l48W-7" edge="1">
          <mxGeometry width="160" relative="1" as="geometry">
            <mxPoint x="265.75" y="701" as="sourcePoint" />
            <mxPoint x="52.25" y="701" as="targetPoint" />
          </mxGeometry>
        </mxCell>
        <mxCell id="8kdLGrxo9rFv1h7z05Aq-63" value="список избранных" style="edgeLabel;html=1;align=center;verticalAlign=middle;resizable=0;points=[];" parent="8kdLGrxo9rFv1h7z05Aq-62" vertex="1" connectable="0">
          <mxGeometry x="0.0991" y="-1" relative="1" as="geometry">
            <mxPoint as="offset" />
          </mxGeometry>
        </mxCell>
        <mxCell id="8kdLGrxo9rFv1h7z05Aq-66" style="edgeStyle=none;rounded=0;orthogonalLoop=1;jettySize=auto;html=1;endArrow=blockThin;endFill=1;" parent="oFbbETFREsKXqKu5l48W-7" edge="1">
          <mxGeometry relative="1" as="geometry">
            <mxPoint x="50" y="750" as="targetPoint" />
            <Array as="points">
              <mxPoint x="-26.5" y="750" />
            </Array>
            <mxPoint x="-146" y="750" as="sourcePoint" />
          </mxGeometry>
        </mxCell>
        <mxCell id="8kdLGrxo9rFv1h7z05Aq-67" value="удалить канал из избранных" style="edgeLabel;html=1;align=center;verticalAlign=middle;resizable=0;points=[];" parent="8kdLGrxo9rFv1h7z05Aq-66" vertex="1" connectable="0">
          <mxGeometry x="0.0631" y="-3" relative="1" as="geometry">
            <mxPoint x="-7" y="-4" as="offset" />
          </mxGeometry>
        </mxCell>
        <mxCell id="8kdLGrxo9rFv1h7z05Aq-70" value="Use" style="endArrow=open;endSize=12;dashed=1;html=1;rounded=0;" parent="oFbbETFREsKXqKu5l48W-7" edge="1">
          <mxGeometry width="160" relative="1" as="geometry">
            <mxPoint x="267.5" y="810" as="sourcePoint" />
            <mxPoint x="54" y="810" as="targetPoint" />
          </mxGeometry>
        </mxCell>
        <mxCell id="8kdLGrxo9rFv1h7z05Aq-71" value="канал удален" style="edgeLabel;html=1;align=center;verticalAlign=middle;resizable=0;points=[];" parent="8kdLGrxo9rFv1h7z05Aq-70" vertex="1" connectable="0">
          <mxGeometry x="0.0991" y="-1" relative="1" as="geometry">
            <mxPoint as="offset" />
          </mxGeometry>
        </mxCell>
        <mxCell id="8kdLGrxo9rFv1h7z05Aq-83" value="" style="html=1;points=[];perimeter=orthogonalPerimeter;outlineConnect=0;targetShapes=umlLifeline;portConstraint=eastwest;newEdgeStyle={&quot;edgeStyle&quot;:&quot;elbowEdgeStyle&quot;,&quot;elbow&quot;:&quot;vertical&quot;,&quot;curved&quot;:0,&quot;rounded&quot;:0};" parent="oFbbETFREsKXqKu5l48W-7" vertex="1">
          <mxGeometry x="45" y="70" width="10" height="110" as="geometry" />
        </mxCell>
        <mxCell id="8kdLGrxo9rFv1h7z05Aq-84" value="" style="html=1;points=[];perimeter=orthogonalPerimeter;outlineConnect=0;targetShapes=umlLifeline;portConstraint=eastwest;newEdgeStyle={&quot;edgeStyle&quot;:&quot;elbowEdgeStyle&quot;,&quot;elbow&quot;:&quot;vertical&quot;,&quot;curved&quot;:0,&quot;rounded&quot;:0};" parent="oFbbETFREsKXqKu5l48W-7" vertex="1">
          <mxGeometry x="45" y="220" width="10" height="150" as="geometry" />
        </mxCell>
        <mxCell id="8kdLGrxo9rFv1h7z05Aq-85" value="" style="html=1;points=[];perimeter=orthogonalPerimeter;outlineConnect=0;targetShapes=umlLifeline;portConstraint=eastwest;newEdgeStyle={&quot;edgeStyle&quot;:&quot;elbowEdgeStyle&quot;,&quot;elbow&quot;:&quot;vertical&quot;,&quot;curved&quot;:0,&quot;rounded&quot;:0};" parent="oFbbETFREsKXqKu5l48W-7" vertex="1">
          <mxGeometry x="45" y="420" width="10" height="180" as="geometry" />
        </mxCell>
        <mxCell id="8kdLGrxo9rFv1h7z05Aq-87" value="" style="html=1;points=[];perimeter=orthogonalPerimeter;outlineConnect=0;targetShapes=umlLifeline;portConstraint=eastwest;newEdgeStyle={&quot;edgeStyle&quot;:&quot;elbowEdgeStyle&quot;,&quot;elbow&quot;:&quot;vertical&quot;,&quot;curved&quot;:0,&quot;rounded&quot;:0};" parent="oFbbETFREsKXqKu5l48W-7" vertex="1">
          <mxGeometry x="45" y="640" width="10" height="80" as="geometry" />
        </mxCell>
        <mxCell id="8kdLGrxo9rFv1h7z05Aq-88" value="" style="html=1;points=[];perimeter=orthogonalPerimeter;outlineConnect=0;targetShapes=umlLifeline;portConstraint=eastwest;newEdgeStyle={&quot;edgeStyle&quot;:&quot;elbowEdgeStyle&quot;,&quot;elbow&quot;:&quot;vertical&quot;,&quot;curved&quot;:0,&quot;rounded&quot;:0};" parent="oFbbETFREsKXqKu5l48W-7" vertex="1">
          <mxGeometry x="45" y="750" width="10" height="70" as="geometry" />
        </mxCell>
        <mxCell id="oFbbETFREsKXqKu5l48W-8" value=":Пользователь&amp;nbsp;" style="shape=umlLifeline;perimeter=lifelinePerimeter;whiteSpace=wrap;html=1;container=1;collapsible=0;recursiveResize=0;outlineConnect=0;" parent="1" vertex="1">
          <mxGeometry x="1290" y="-1060" width="100" height="850" as="geometry" />
        </mxCell>
        <mxCell id="8kdLGrxo9rFv1h7z05Aq-45" style="edgeStyle=none;rounded=0;orthogonalLoop=1;jettySize=auto;html=1;endArrow=blockThin;endFill=1;" parent="oFbbETFREsKXqKu5l48W-8" edge="1">
          <mxGeometry relative="1" as="geometry">
            <mxPoint x="190" y="250.5" as="targetPoint" />
            <Array as="points">
              <mxPoint x="127" y="250" />
            </Array>
            <mxPoint x="50" y="251" as="sourcePoint" />
          </mxGeometry>
        </mxCell>
        <mxCell id="8kdLGrxo9rFv1h7z05Aq-46" value="запрос подписки" style="edgeLabel;html=1;align=center;verticalAlign=middle;resizable=0;points=[];" parent="8kdLGrxo9rFv1h7z05Aq-45" vertex="1" connectable="0">
          <mxGeometry x="0.0631" y="-3" relative="1" as="geometry">
            <mxPoint x="-7" y="-4" as="offset" />
          </mxGeometry>
        </mxCell>
        <mxCell id="8kdLGrxo9rFv1h7z05Aq-13" style="edgeStyle=none;rounded=0;orthogonalLoop=1;jettySize=auto;html=1;endArrow=blockThin;endFill=1;" parent="oFbbETFREsKXqKu5l48W-8" edge="1">
          <mxGeometry relative="1" as="geometry">
            <mxPoint x="310" y="310.5" as="targetPoint" />
            <Array as="points" />
            <mxPoint x="49.5" y="310" as="sourcePoint" />
          </mxGeometry>
        </mxCell>
        <mxCell id="8kdLGrxo9rFv1h7z05Aq-14" value="запрос библиотеки каналов" style="edgeLabel;html=1;align=center;verticalAlign=middle;resizable=0;points=[];" parent="8kdLGrxo9rFv1h7z05Aq-13" vertex="1" connectable="0">
          <mxGeometry x="0.0631" y="-3" relative="1" as="geometry">
            <mxPoint x="-7" y="-4" as="offset" />
          </mxGeometry>
        </mxCell>
        <mxCell id="8kdLGrxo9rFv1h7z05Aq-54" value="Use" style="endArrow=open;endSize=12;dashed=1;html=1;rounded=0;" parent="oFbbETFREsKXqKu5l48W-8" edge="1">
          <mxGeometry width="160" relative="1" as="geometry">
            <mxPoint x="49.5" y="580" as="sourcePoint" />
            <mxPoint x="-159" y="580" as="targetPoint" />
          </mxGeometry>
        </mxCell>
        <mxCell id="8kdLGrxo9rFv1h7z05Aq-55" value="канал добавлен в избранное" style="edgeLabel;html=1;align=center;verticalAlign=middle;resizable=0;points=[];" parent="8kdLGrxo9rFv1h7z05Aq-54" vertex="1" connectable="0">
          <mxGeometry x="0.0991" y="-1" relative="1" as="geometry">
            <mxPoint as="offset" />
          </mxGeometry>
        </mxCell>
        <mxCell id="8kdLGrxo9rFv1h7z05Aq-68" style="edgeStyle=none;rounded=0;orthogonalLoop=1;jettySize=auto;html=1;endArrow=blockThin;endFill=1;" parent="oFbbETFREsKXqKu5l48W-8" edge="1">
          <mxGeometry relative="1" as="geometry">
            <mxPoint x="50" y="770" as="targetPoint" />
            <Array as="points">
              <mxPoint x="-30.5" y="770" />
            </Array>
            <mxPoint x="-160" y="770" as="sourcePoint" />
          </mxGeometry>
        </mxCell>
        <mxCell id="8kdLGrxo9rFv1h7z05Aq-69" value="удалить канал из избранных" style="edgeLabel;html=1;align=center;verticalAlign=middle;resizable=0;points=[];" parent="8kdLGrxo9rFv1h7z05Aq-68" vertex="1" connectable="0">
          <mxGeometry x="0.0631" y="-3" relative="1" as="geometry">
            <mxPoint x="-7" y="-4" as="offset" />
          </mxGeometry>
        </mxCell>
        <mxCell id="8kdLGrxo9rFv1h7z05Aq-75" value="" style="html=1;points=[];perimeter=orthogonalPerimeter;outlineConnect=0;targetShapes=umlLifeline;portConstraint=eastwest;newEdgeStyle={&quot;edgeStyle&quot;:&quot;elbowEdgeStyle&quot;,&quot;elbow&quot;:&quot;vertical&quot;,&quot;curved&quot;:0,&quot;rounded&quot;:0};" parent="oFbbETFREsKXqKu5l48W-8" vertex="1">
          <mxGeometry x="45" y="90" width="10" height="80" as="geometry" />
        </mxCell>
        <mxCell id="8kdLGrxo9rFv1h7z05Aq-76" value="" style="html=1;points=[];perimeter=orthogonalPerimeter;outlineConnect=0;targetShapes=umlLifeline;portConstraint=eastwest;newEdgeStyle={&quot;edgeStyle&quot;:&quot;elbowEdgeStyle&quot;,&quot;elbow&quot;:&quot;vertical&quot;,&quot;curved&quot;:0,&quot;rounded&quot;:0};" parent="oFbbETFREsKXqKu5l48W-8" vertex="1">
          <mxGeometry x="45" y="240" width="10" height="110" as="geometry" />
        </mxCell>
        <mxCell id="8kdLGrxo9rFv1h7z05Aq-80" value="" style="html=1;points=[];perimeter=orthogonalPerimeter;outlineConnect=0;targetShapes=umlLifeline;portConstraint=eastwest;newEdgeStyle={&quot;edgeStyle&quot;:&quot;elbowEdgeStyle&quot;,&quot;elbow&quot;:&quot;vertical&quot;,&quot;curved&quot;:0,&quot;rounded&quot;:0};" parent="oFbbETFREsKXqKu5l48W-8" vertex="1">
          <mxGeometry x="45" y="550" width="10" height="30" as="geometry" />
        </mxCell>
        <mxCell id="8kdLGrxo9rFv1h7z05Aq-81" value="" style="html=1;points=[];perimeter=orthogonalPerimeter;outlineConnect=0;targetShapes=umlLifeline;portConstraint=eastwest;newEdgeStyle={&quot;edgeStyle&quot;:&quot;elbowEdgeStyle&quot;,&quot;elbow&quot;:&quot;vertical&quot;,&quot;curved&quot;:0,&quot;rounded&quot;:0};" parent="oFbbETFREsKXqKu5l48W-8" vertex="1">
          <mxGeometry x="45" y="660" width="10" height="40" as="geometry" />
        </mxCell>
        <mxCell id="8kdLGrxo9rFv1h7z05Aq-82" value="" style="html=1;points=[];perimeter=orthogonalPerimeter;outlineConnect=0;targetShapes=umlLifeline;portConstraint=eastwest;newEdgeStyle={&quot;edgeStyle&quot;:&quot;elbowEdgeStyle&quot;,&quot;elbow&quot;:&quot;vertical&quot;,&quot;curved&quot;:0,&quot;rounded&quot;:0};" parent="oFbbETFREsKXqKu5l48W-8" vertex="1">
          <mxGeometry x="45" y="770" width="10" height="40" as="geometry" />
        </mxCell>
        <mxCell id="ru-FTdxoZdUMPmM3D2b2-4" value="Use" style="endArrow=open;endSize=12;dashed=1;html=1;rounded=0;" parent="oFbbETFREsKXqKu5l48W-8" source="oFbbETFREsKXqKu5l48W-4" edge="1">
          <mxGeometry width="160" relative="1" as="geometry">
            <mxPoint x="267.25" y="350.5" as="sourcePoint" />
            <mxPoint x="55" y="350" as="targetPoint" />
          </mxGeometry>
        </mxCell>
        <mxCell id="ru-FTdxoZdUMPmM3D2b2-5" value="библитека каналов" style="edgeLabel;html=1;align=center;verticalAlign=middle;resizable=0;points=[];" parent="ru-FTdxoZdUMPmM3D2b2-4" vertex="1" connectable="0">
          <mxGeometry x="0.0991" y="-1" relative="1" as="geometry">
            <mxPoint as="offset" />
          </mxGeometry>
        </mxCell>
        <mxCell id="oFbbETFREsKXqKu5l48W-9" value="&lt;h1 style=&quot;font-size: 30px;&quot;&gt;&lt;span style=&quot;font-size: 30px;&quot;&gt;Диаграмма&amp;nbsp;последовательности&lt;/span&gt;&lt;/h1&gt;" style="text;html=1;strokeColor=#FF8000;fillColor=#FFE6CC;spacing=5;spacingTop=-20;whiteSpace=wrap;overflow=hidden;rounded=0;fontSize=30;align=center;" parent="1" vertex="1">
          <mxGeometry x="880" y="-1150" width="710" height="60" as="geometry" />
        </mxCell>
        <mxCell id="oFbbETFREsKXqKu5l48W-11" value="&lt;h1&gt;&lt;font style=&quot;font-size: 40px;&quot;&gt;Задание&lt;/font&gt;&lt;/h1&gt;&lt;p style=&quot;font-size: 20px;&quot;&gt;&lt;font style=&quot;font-size: 20px;&quot;&gt;Составьте диаграмму последовательности в нотации.&lt;/font&gt;&lt;/p&gt;&lt;p style=&quot;font-size: 20px;&quot;&gt;&lt;font style=&quot;font-size: 20px;&quot;&gt;1. Проанализируйте существующее API, которое включает в себя следующий сценарий: авторизация пользователя для доступа к медиатеке, просмотр медиатеки фильмов и получении информации о нужном фильме и работе пользователя с избранными фильмами.&amp;nbsp;&lt;/font&gt;&lt;/p&gt;&lt;p style=&quot;font-size: 20px;&quot;&gt;&lt;font style=&quot;font-size: 20px;&quot;&gt;2. Вам необходимо построить диаграмму последовательностях для телеканалов по аналогии с сценарием взаимодействия пользователя с фильмами. Справа вы видите начало диаграммы, где уже выделен актор, объекты и обозначены несколько сообщений.&lt;/font&gt;&lt;/p&gt;&lt;p style=&quot;font-size: 20px;&quot;&gt;&lt;font style=&quot;font-size: 20px;&quot;&gt;3. Добавьте на диаграмму следующие действия, которые может выполнить пользователь:&amp;nbsp;&lt;/font&gt;&lt;/p&gt;&lt;ul style=&quot;font-size: 18px;&quot;&gt;&lt;li&gt;авторизоваться в системе&lt;/li&gt;&lt;li&gt;познакомиться с библиотекой телеканалов&lt;/li&gt;&lt;li&gt;прочитать подробную информацию о телеканале&lt;/li&gt;&lt;li&gt;добавить в избранное телеканал (это действие возможно выполнить только с детальной страницы).&lt;/li&gt;&lt;li&gt;посмотреть список избранных телеканалов&lt;/li&gt;&lt;li&gt;удалить телеканал из списка избранного&lt;/li&gt;&lt;/ul&gt;&lt;p style=&quot;font-size: 20px;&quot;&gt;&lt;font style=&quot;font-size: 20px;&quot;&gt;&amp;nbsp;Не забудьте отметить фокус управления.&lt;/font&gt;&lt;/p&gt;" style="text;html=1;strokeColor=#82b366;fillColor=#d5e8d4;spacing=5;spacingTop=-20;whiteSpace=wrap;overflow=hidden;rounded=0;fontSize=16;" parent="1" vertex="1">
          <mxGeometry x="70" y="-1150" width="600" height="910" as="geometry" />
        </mxCell>
        <mxCell id="8kdLGrxo9rFv1h7z05Aq-11" style="edgeStyle=none;rounded=0;orthogonalLoop=1;jettySize=auto;html=1;endArrow=blockThin;endFill=1;" parent="1" edge="1">
          <mxGeometry relative="1" as="geometry">
            <mxPoint x="1125.5" y="-840" as="targetPoint" />
            <Array as="points">
              <mxPoint x="1049" y="-840" />
            </Array>
            <mxPoint x="930" y="-840" as="sourcePoint" />
          </mxGeometry>
        </mxCell>
        <mxCell id="8kdLGrxo9rFv1h7z05Aq-12" value="запрос библиотеки каналов" style="edgeLabel;html=1;align=center;verticalAlign=middle;resizable=0;points=[];" parent="8kdLGrxo9rFv1h7z05Aq-11" vertex="1" connectable="0">
          <mxGeometry x="0.0631" y="-3" relative="1" as="geometry">
            <mxPoint x="-7" y="-4" as="offset" />
          </mxGeometry>
        </mxCell>
        <mxCell id="8kdLGrxo9rFv1h7z05Aq-7" value="Use" style="endArrow=open;endSize=12;dashed=1;html=1;rounded=0;" parent="1" edge="1">
          <mxGeometry width="160" relative="1" as="geometry">
            <mxPoint x="1130.5" y="-910" as="sourcePoint" />
            <mxPoint x="925" y="-910" as="targetPoint" />
          </mxGeometry>
        </mxCell>
        <mxCell id="8kdLGrxo9rFv1h7z05Aq-8" value="Авторизация пройдена" style="edgeLabel;html=1;align=center;verticalAlign=middle;resizable=0;points=[];" parent="8kdLGrxo9rFv1h7z05Aq-7" vertex="1" connectable="0">
          <mxGeometry x="0.0991" y="-1" relative="1" as="geometry">
            <mxPoint as="offset" />
          </mxGeometry>
        </mxCell>
        <mxCell id="8kdLGrxo9rFv1h7z05Aq-17" value="Use" style="endArrow=open;endSize=12;dashed=1;html=1;rounded=0;" parent="1" edge="1">
          <mxGeometry width="160" relative="1" as="geometry">
            <mxPoint x="1130" y="-879" as="sourcePoint" />
            <mxPoint x="930" y="-879" as="targetPoint" />
          </mxGeometry>
        </mxCell>
        <mxCell id="8kdLGrxo9rFv1h7z05Aq-18" value="Авторизация не пройдена" style="edgeLabel;html=1;align=center;verticalAlign=middle;resizable=0;points=[];" parent="8kdLGrxo9rFv1h7z05Aq-17" vertex="1" connectable="0">
          <mxGeometry x="0.0991" y="-1" relative="1" as="geometry">
            <mxPoint as="offset" />
          </mxGeometry>
        </mxCell>
        <mxCell id="8kdLGrxo9rFv1h7z05Aq-19" style="edgeStyle=none;rounded=0;orthogonalLoop=1;jettySize=auto;html=1;endArrow=blockThin;endFill=1;" parent="1" edge="1">
          <mxGeometry relative="1" as="geometry">
            <mxPoint x="1126" y="-640" as="targetPoint" />
            <Array as="points">
              <mxPoint x="1049.5" y="-640" />
            </Array>
            <mxPoint x="930" y="-640" as="sourcePoint" />
          </mxGeometry>
        </mxCell>
        <mxCell id="8kdLGrxo9rFv1h7z05Aq-20" value="Запрос информации о канале" style="edgeLabel;html=1;align=center;verticalAlign=middle;resizable=0;points=[];" parent="8kdLGrxo9rFv1h7z05Aq-19" vertex="1" connectable="0">
          <mxGeometry x="0.0631" y="-3" relative="1" as="geometry">
            <mxPoint x="-7" y="-4" as="offset" />
          </mxGeometry>
        </mxCell>
        <mxCell id="8kdLGrxo9rFv1h7z05Aq-25" value="Use" style="endArrow=open;endSize=12;dashed=1;html=1;rounded=0;" parent="1" edge="1">
          <mxGeometry width="160" relative="1" as="geometry">
            <mxPoint x="1120.5" y="-695.5" as="sourcePoint" />
            <mxPoint x="930" y="-695" as="targetPoint" />
          </mxGeometry>
        </mxCell>
        <mxCell id="8kdLGrxo9rFv1h7z05Aq-26" value="библитека каналов" style="edgeLabel;html=1;align=center;verticalAlign=middle;resizable=0;points=[];" parent="8kdLGrxo9rFv1h7z05Aq-25" vertex="1" connectable="0">
          <mxGeometry x="0.0991" y="-1" relative="1" as="geometry">
            <mxPoint as="offset" />
          </mxGeometry>
        </mxCell>
        <mxCell id="8kdLGrxo9rFv1h7z05Aq-29" value="Use" style="endArrow=open;endSize=12;dashed=1;html=1;rounded=0;" parent="1" edge="1">
          <mxGeometry width="160" relative="1" as="geometry">
            <mxPoint x="1599.5" y="-585" as="sourcePoint" />
            <mxPoint x="1130" y="-585" as="targetPoint" />
          </mxGeometry>
        </mxCell>
        <mxCell id="8kdLGrxo9rFv1h7z05Aq-30" value="информация о канале" style="edgeLabel;html=1;align=center;verticalAlign=middle;resizable=0;points=[];" parent="8kdLGrxo9rFv1h7z05Aq-29" vertex="1" connectable="0">
          <mxGeometry x="0.0991" y="-1" relative="1" as="geometry">
            <mxPoint as="offset" />
          </mxGeometry>
        </mxCell>
        <mxCell id="8kdLGrxo9rFv1h7z05Aq-31" value="Use" style="endArrow=open;endSize=12;dashed=1;html=1;rounded=0;" parent="1" edge="1">
          <mxGeometry width="160" relative="1" as="geometry">
            <mxPoint x="1125.5" y="-560" as="sourcePoint" />
            <mxPoint x="930" y="-560" as="targetPoint" />
          </mxGeometry>
        </mxCell>
        <mxCell id="8kdLGrxo9rFv1h7z05Aq-32" value="информация о канале" style="edgeLabel;html=1;align=center;verticalAlign=middle;resizable=0;points=[];" parent="8kdLGrxo9rFv1h7z05Aq-31" vertex="1" connectable="0">
          <mxGeometry x="0.0991" y="-1" relative="1" as="geometry">
            <mxPoint as="offset" />
          </mxGeometry>
        </mxCell>
        <mxCell id="8kdLGrxo9rFv1h7z05Aq-38" value=":Подписки" style="shape=umlLifeline;perimeter=lifelinePerimeter;whiteSpace=wrap;html=1;container=1;collapsible=0;recursiveResize=0;outlineConnect=0;" parent="1" vertex="1">
          <mxGeometry x="1430" y="-1060" width="100" height="850" as="geometry" />
        </mxCell>
        <mxCell id="8kdLGrxo9rFv1h7z05Aq-77" value="" style="html=1;points=[];perimeter=orthogonalPerimeter;outlineConnect=0;targetShapes=umlLifeline;portConstraint=eastwest;newEdgeStyle={&quot;edgeStyle&quot;:&quot;elbowEdgeStyle&quot;,&quot;elbow&quot;:&quot;vertical&quot;,&quot;curved&quot;:0,&quot;rounded&quot;:0};" parent="8kdLGrxo9rFv1h7z05Aq-38" vertex="1">
          <mxGeometry x="45" y="250" width="10" height="30" as="geometry" />
        </mxCell>
        <mxCell id="8kdLGrxo9rFv1h7z05Aq-27" style="edgeStyle=none;rounded=0;orthogonalLoop=1;jettySize=auto;html=1;endArrow=blockThin;endFill=1;" parent="1" source="8kdLGrxo9rFv1h7z05Aq-85" edge="1">
          <mxGeometry relative="1" as="geometry">
            <mxPoint x="1599.5" y="-620" as="targetPoint" />
            <Array as="points">
              <mxPoint x="1329.5" y="-620" />
            </Array>
            <mxPoint x="1140" y="-620" as="sourcePoint" />
          </mxGeometry>
        </mxCell>
        <mxCell id="8kdLGrxo9rFv1h7z05Aq-28" value="Запрос информации о канале" style="edgeLabel;html=1;align=center;verticalAlign=middle;resizable=0;points=[];" parent="8kdLGrxo9rFv1h7z05Aq-27" vertex="1" connectable="0">
          <mxGeometry x="0.0631" y="-3" relative="1" as="geometry">
            <mxPoint x="-7" y="-4" as="offset" />
          </mxGeometry>
        </mxCell>
        <mxCell id="8kdLGrxo9rFv1h7z05Aq-48" value="Use" style="endArrow=open;endSize=12;dashed=1;html=1;rounded=0;" parent="1" edge="1">
          <mxGeometry width="160" relative="1" as="geometry">
            <mxPoint x="1470" y="-780" as="sourcePoint" />
            <mxPoint x="1350" y="-780" as="targetPoint" />
          </mxGeometry>
        </mxCell>
        <mxCell id="8kdLGrxo9rFv1h7z05Aq-49" value="подписка&amp;nbsp;&lt;br&gt;подтверждена" style="edgeLabel;html=1;align=center;verticalAlign=middle;resizable=0;points=[];" parent="8kdLGrxo9rFv1h7z05Aq-48" vertex="1" connectable="0">
          <mxGeometry x="0.0991" y="-1" relative="1" as="geometry">
            <mxPoint as="offset" />
          </mxGeometry>
        </mxCell>
        <mxCell id="8kdLGrxo9rFv1h7z05Aq-50" style="edgeStyle=none;rounded=0;orthogonalLoop=1;jettySize=auto;html=1;endArrow=blockThin;endFill=1;" parent="1" edge="1">
          <mxGeometry relative="1" as="geometry">
            <mxPoint x="1120" y="-530" as="targetPoint" />
            <Array as="points">
              <mxPoint x="1049.5" y="-530" />
            </Array>
            <mxPoint x="930" y="-530" as="sourcePoint" />
          </mxGeometry>
        </mxCell>
        <mxCell id="8kdLGrxo9rFv1h7z05Aq-51" value="добавить канал в избранное" style="edgeLabel;html=1;align=center;verticalAlign=middle;resizable=0;points=[];" parent="8kdLGrxo9rFv1h7z05Aq-50" vertex="1" connectable="0">
          <mxGeometry x="0.0631" y="-3" relative="1" as="geometry">
            <mxPoint x="-7" y="-4" as="offset" />
          </mxGeometry>
        </mxCell>
        <mxCell id="8kdLGrxo9rFv1h7z05Aq-56" value="Use" style="endArrow=open;endSize=12;dashed=1;html=1;rounded=0;" parent="1" edge="1">
          <mxGeometry width="160" relative="1" as="geometry">
            <mxPoint x="1120" y="-460" as="sourcePoint" />
            <mxPoint x="930" y="-460" as="targetPoint" />
          </mxGeometry>
        </mxCell>
        <mxCell id="8kdLGrxo9rFv1h7z05Aq-57" value="канал добавлен в избранное" style="edgeLabel;html=1;align=center;verticalAlign=middle;resizable=0;points=[];" parent="8kdLGrxo9rFv1h7z05Aq-56" vertex="1" connectable="0">
          <mxGeometry x="0.0991" y="-1" relative="1" as="geometry">
            <mxPoint as="offset" />
          </mxGeometry>
        </mxCell>
        <mxCell id="8kdLGrxo9rFv1h7z05Aq-64" value="Use" style="endArrow=open;endSize=12;dashed=1;html=1;rounded=0;" parent="1" edge="1">
          <mxGeometry width="160" relative="1" as="geometry">
            <mxPoint x="1123.5" y="-340" as="sourcePoint" />
            <mxPoint x="930" y="-340" as="targetPoint" />
          </mxGeometry>
        </mxCell>
        <mxCell id="8kdLGrxo9rFv1h7z05Aq-65" value="список избранных" style="edgeLabel;html=1;align=center;verticalAlign=middle;resizable=0;points=[];" parent="8kdLGrxo9rFv1h7z05Aq-64" vertex="1" connectable="0">
          <mxGeometry x="0.0991" y="-1" relative="1" as="geometry">
            <mxPoint as="offset" />
          </mxGeometry>
        </mxCell>
        <mxCell id="8kdLGrxo9rFv1h7z05Aq-72" value="Use" style="endArrow=open;endSize=12;dashed=1;html=1;rounded=0;" parent="1" edge="1">
          <mxGeometry width="160" relative="1" as="geometry">
            <mxPoint x="1123.5" y="-240" as="sourcePoint" />
            <mxPoint x="930" y="-240" as="targetPoint" />
          </mxGeometry>
        </mxCell>
        <mxCell id="8kdLGrxo9rFv1h7z05Aq-73" value="канал удален" style="edgeLabel;html=1;align=center;verticalAlign=middle;resizable=0;points=[];" parent="8kdLGrxo9rFv1h7z05Aq-72" vertex="1" connectable="0">
          <mxGeometry x="0.0991" y="-1" relative="1" as="geometry">
            <mxPoint as="offset" />
          </mxGeometry>
        </mxCell>
        <mxCell id="8kdLGrxo9rFv1h7z05Aq-52" style="edgeStyle=none;rounded=0;orthogonalLoop=1;jettySize=auto;html=1;endArrow=blockThin;endFill=1;" parent="1" target="8kdLGrxo9rFv1h7z05Aq-80" edge="1">
          <mxGeometry relative="1" as="geometry">
            <mxPoint x="1330" y="-509" as="targetPoint" />
            <Array as="points">
              <mxPoint x="1150" y="-510" />
              <mxPoint x="1170" y="-509" />
              <mxPoint x="1249.5" y="-509" />
            </Array>
            <mxPoint x="1130" y="-509" as="sourcePoint" />
          </mxGeometry>
        </mxCell>
        <mxCell id="8kdLGrxo9rFv1h7z05Aq-53" value="добавить канал в избранное" style="edgeLabel;html=1;align=center;verticalAlign=middle;resizable=0;points=[];" parent="8kdLGrxo9rFv1h7z05Aq-52" vertex="1" connectable="0">
          <mxGeometry x="0.0631" y="-3" relative="1" as="geometry">
            <mxPoint x="-7" y="-4" as="offset" />
          </mxGeometry>
        </mxCell>
        <mxCell id="ru-FTdxoZdUMPmM3D2b2-2" value="ALT" style="shape=umlFrame;whiteSpace=wrap;html=1;pointerEvents=0;" parent="1" vertex="1">
          <mxGeometry x="830" y="-950" width="530" height="90" as="geometry" />
        </mxCell>
        <mxCell id="ru-FTdxoZdUMPmM3D2b2-7" value="&lt;font style=&quot;font-size: 10px;&quot;&gt;[Иначе]&lt;/font&gt;" style="html=1;whiteSpace=wrap;" parent="1" vertex="1">
          <mxGeometry x="830" y="-890" width="70" height="30" as="geometry" />
        </mxCell>
        <mxCell id="ru-FTdxoZdUMPmM3D2b2-8" value="&lt;font style=&quot;font-size: 10px;&quot;&gt;[Пользователь авторизован]&lt;/font&gt;" style="html=1;whiteSpace=wrap;" parent="1" vertex="1">
          <mxGeometry x="830" y="-920" width="70" height="30" as="geometry" />
        </mxCell>
        <mxCell id="ru-FTdxoZdUMPmM3D2b2-9" value="Use" style="endArrow=open;endSize=12;dashed=1;html=1;rounded=0;" parent="1" edge="1">
          <mxGeometry width="160" relative="1" as="geometry">
            <mxPoint x="1331" y="-921" as="sourcePoint" />
            <mxPoint x="1131" y="-921" as="targetPoint" />
          </mxGeometry>
        </mxCell>
        <mxCell id="ru-FTdxoZdUMPmM3D2b2-10" value="Авторизация пройдена" style="edgeLabel;html=1;align=center;verticalAlign=middle;resizable=0;points=[];" parent="ru-FTdxoZdUMPmM3D2b2-9" vertex="1" connectable="0">
          <mxGeometry x="0.0991" y="-1" relative="1" as="geometry">
            <mxPoint as="offset" />
          </mxGeometry>
        </mxCell>
      </root>
    </mxGraphModel>
  </diagram>
</mxfile>
